**ABCDEFGHIJKLMNOPQRSTUVWXYZabcdefghijklmnopqrstuvwxyz**************************
**PARASOLID !"#$%&'()*+,-./:;<=>?@[\]^_`{|}~0123456789**************************
**PART1;
MC=AMD64;
MC_MODEL=Intel64 Family 6 Model 85 Stepping 0, GenuineIntel;
MC_ID=unknown;
OS=Windows_NT;
OS_RELEASE=unknown;
FRU=Parasolid Version 31.1, build 290,  3- 9-2020;
APPL=SOLIDWORKS 2020-2020196;
SITE=;
USER=unknown;
FORMAT=text;
GUISE=transmit;
KEY=Tube-Fluid-Volume-split-edge;
FILE=Tube-Fluid-Volume-split-edge.x_t;
DATE=Mon May 10 15:54:04 2021;
**PART2;
SCH=SCH_3101290_31100;
USFLD_SIZE=0;
**PART3;
**END_OF_HEADER*****************************************************************
T51 : TRANSMIT FILE created by modeller version 310129023 SCH_3101290_31100_1300
6222 0 12 34 CCCCCCI4 mesh1006 0 I8 polyline1008 0 CCCCCCCDI5 owner1040 0 CCCCCC
I13 boundary_mesh1006 0 I17 boundary_polyline1008 0 CCCA16 index_map_offset0 0 1
 dA9 index_map82 0 A17 node_id_index_map82 0 A20 schema_embedding_map82 0 A5 chi
ld12 0 A14 lowest_node_id0 0 1 dA16 mesh_offset_data206 0 Z1 614 2 3 4 0 0 0 0 0
 1e3 1e-8 0 5 0 1 0 1 1 6 7 8 9 0 0 10 11 12 0 0 0 0 0 0 0 81 255 2 2 602 13 1 1
4 0 0 0 0 15 70 11 CI9 list_type0 0 1 uI10 notransmit0 0 1 lCCCDCCDI12 finger_in
dex0 0 1 dI12 finger_block1012 0 CZ3 0 4 T1 0 0 8 20 1 16 16 51 255 4 429 0 1 17
 0 0 +.063499999999638 110139118694645e-47 1 0 0 -1 .0481 -1 0 0 13 255 6 62 0 1
 0 18 0 0 19 0 50 255 7 141 0 20 21 0 0 +-.0106541824341614 -525267681101178e-31
 .0150199999998294 1 795165671445626e-32 0 -795165671445626e-32 1 0 38 12 CCCCCC
CCCCCA17 intersection_data204 0 Z8 438 0 11 22 0 0 +23 24 25 26 27 28 29 255 9 4
32 0 12 29 0 .02539999999963805 100986040272156e-33 .979960755999982 19 8 CCCCCC
CA5 owner12 0 Z10 66 0 1 19 0 30 V0 16 255 11 436 0 ?31 0 32 8 0 0 1 18 255 12 4
30 0 33 0 34 9 ?1 17 255 33 0 35 36 37 12 38 39 0 31 -18 34 347 0 40 12 41 29 ?1
 17 40 0 42 43 44 34 45 32 0 46 +18 41 203 0 47 34 48 49 ?1 29 29 349 0 34 49 9
 .02539999999963805 2019720805443005e-34 -4362946183930635e-33 29 49 205 0 41 50
 29 .0256666813505926 .004499999999976655 0 29 50 60 0 48 51 49 -.01065418243416
14 -84718401289637e-33 -122004264026313e-32 18 48 58 0 52 41 53 50 ?1 29 51 57 0
 53 54 50 -.0106541824341614 -525267681101178e-31 .0150199999998294 18 53 55 0 5
5 48 56 51 ?1 29 54 54 0 56 57 51 -.000654182433727519 -524472515422398e-31 .015
0199999996203 18 56 52 0 58 53 59 54 ?1 29 57 51 0 59 60 54 .02539999999963805 -
155096939441683e-31 .004499999999976655 18 59 49 0 44 56 61 57 ?1 29 60 108 0 61
 62 57 -.0106541824341614 .0150199999998294 0 18 61 90 0 63 59 64 60 ?1 29 62 10
9 0 64 65 60 -.000654182433727519 .0150199999996203 0 18 64 89 0 66 61 67 62 ?1
 29 65 110 0 67 68 62 .02539999999963805 .004499999999976655 0 18 67 88 0 69 64
 70 65 ?1 29 68 304 0 71 72 65 .101599999999638 140986989545264e-31 0 18 71 248
 0 43 73 74 68 ?1 29 72 305 0 70 75 68 .02539999999963805 100986040272156e-33 1
 18 70 250 0 76 67 73 72 ?1 29 75 306 0 73 77 72 .101599999999638 14098698954526
4e-31 1 18 73 253 0 78 70 71 75 ?1 29 77 514 0 74 79 75 .025399999999638 1009860
402721562e-34 .976956755999982 18 74 473 0 36 71 80 77 ?1 29 79 516 0 81 82 77 0
 100986040272156e-33 .979960755999982 18 81 475 0 38 80 0 79 ?1 29 82 517 0 80 0
 79 0 1009860402721562e-34 .976956755999982 18 80 476 0 83 74 81 82 ?1 17 83 0 3
5 37 36 80 84 85 0 86 +15 255 35 494 0 36 87 0 17 37 0 35 33 83 81 86 88 0 89 +1
7 36 0 35 83 33 74 31 11 0 84 -17 84 0 42 44 90 74 83 85 0 91 -16 85 465 0 ?83 8
8 39 92 0 0 1 17 86 0 93 89 89 80 37 88 0 90 -15 93 497 0 86 94 0 17 89 0 93 86
 86 81 90 95 0 0 +16 88 466 0 ?37 95 85 96 0 0 1 17 90 0 42 84 38 80 89 95 0 0 -
15 42 537 0 97 98 0 17 38 0 42 90 97 81 33 39 0 37 +16 95 469 0 ?89 99 88 100 0
 0 1 16 99 221 0 ?101 102 95 103 0 0 1 30 255 100 513 0 95 0 96 0 +0 10098604027
21562e-34 .976956755999982 0 -641121819037028e-46 1 31 255 96 512 0 88 100 92 0
 +0 -236807497197478e-33 .978458755999982 1 0 0 0 0 -1 .001502 30 92 510 0 85 96
 104 0 +.121600999999638 1009860402721562e-34 .976956755999982 -1 0 0 30 104 508
 0 39 92 105 0 +.121600999999638 100986040272156e-33 .979960755999982 -1 0 0 16
 39 464 0 ?38 85 0 104 0 0 1 31 105 297 0 102 104 106 0 +.063499999999638 110139
118694645e-47 1 0 0 -1 -1 0 0 .0381 16 102 224 0 ?107 108 99 105 0 0 1 30 106 29
6 0 108 105 103 0 +.02539999999963805 100986040272156e-33 1 1 183697019872103e-3
0 0 16 108 239 0 ?78 109 102 106 0 0 1 31 103 295 0 99 106 110 0 +.0634999999996
38 110139118694645e-47 0 0 0 -1 -1 0 0 .0381 30 110 293 0 111 103 112 0 +.025399
99999963805 100986040272156e-33 1 0 0 -1 16 111 228 0 ?97 113 114 110 114 114 1
 30 112 292 0 109 110 115 0 +.101599999999638 140986989545264e-31 1 0 0 -1 16 10
9 227 0 ?116 114 108 112 0 0 1 38 115 289 0 113 112 117 0 +118 23 119 120 121 12
2 16 113 234 0 ?123 124 111 115 0 0 1 30 117 102 0 124 115 125 0 +.0253999999996
3805 .004499999999976655 0 -1 -867361737957007e-31 0 51 118 138 0 126 127 128 12
9 -0 0 0 -1 -795165671445626e-32 0 .004499999999976655 795165671445626e-32 -1 0
 51 23 283 0 18 130 131 132 +.063499999999638 110139118694645e-47 1 0 0 -1 .0381
 -1 0 0 40 255 6 119 0 1 6 .000256028248496564 .3390407950332765 ??.025399999999
638 -1506158428162425e-32 .004499999999976655 .0254288991695426 .001483671656637
242 .004248378327677655 .02550302590658635 .002799992816412235 .0035227887004232
55 .02559068454311185 .00380707257844977 .00239920786556849 .025653460859217 .00
438742237453613 .0010002624191729 .02566668135059255 .004499999999976655 4062407
76119448e-33 41 3 CI8 term_use0 0 1 cCZ1 120 L?.025399999999638 -150615842816242
5e-32 .004499999999976655 41 1 121 L?.02566668135059255 .004499999999976655 4062
40776119448e-33 204 2 17 INTERSECTION_DATA17 Intersection data7 uv_type0 0 1 u6
 values0 1 1 fT24 122 4 1.570796326794895 -.025399999999638 0 .995500000000023 1
.90678721418752 -.0254288991695426 .03895136210739435 .995751621672322 2.2423724
6423883 -.02550302590658635 .0735569386403219 .996477211299577 2.579264491857455
 -.02559068454311185 .100090199168255 .997600792134432 2.917439749999085 -.02565
3460859217 .115411482161827 .998999737580827 3.141592653589795 -.025666681350592
55 .1183865813676496 1 14 255 18 439 133 ?134 0 135 6 23 +0 0 134 0 30 50 130 28
6 0 136 24 23 0 +.063499999999638 110139118694645e-47 1 0 0 -1 -1 0 0 50 131 98
 0 137 23 127 0 +.01211316517484838 .00896149231744127 0 0 0 -1 -1 0 0 141 255 1
32 115 138 138 23 141 138 8 132 132 23 14 137 94 139 ?136 98 140 6 131 +141 141
 136 98 30 50 127 3 0 98 131 118 0 +.01211316517484838 -311925634633364e-31 .008
96149231744127 -795165671445626e-32 1 3491481338843135e-30 -1 -795165671445628e-
32 795165671445626e-32 14 98 1 142 ?137 126 42 6 127 -134 134 137 126 30 81 1 14
2 605 143 98 144 0 139 145 146 14 126 124 145 ?98 147 148 6 118 -0 0 98 147 30 1
4 134 391 149 ?141 18 150 6 127 -98 98 141 18 30 13 30 65 0 0 0 0 0 0 10 18 81 1
 149 607 143 134 151 0 145 152 153 14 141 353 152 ?20 134 154 6 131 +137 137 20
 134 30 15 150 389 0 45 134 0 17 45 0 150 155 156 59 40 32 0 157 -17 155 0 150 1
58 45 56 159 160 0 161 +17 156 0 150 45 162 34 163 164 0 0 +16 32 388 0 ?40 11 1
65 22 0 0 1 17 157 0 148 123 69 59 166 167 0 159 -15 148 123 0 157 126 0 17 123
 0 148 69 157 41 168 113 0 169 +17 69 0 148 157 123 67 169 124 0 166 +17 166 0 1
70 171 159 67 157 167 0 172 +16 167 125 0 ?166 173 174 175 0 0 1 17 159 0 170 16
6 58 59 155 160 0 168 -15 170 126 0 166 147 0 17 58 0 170 159 171 56 66 173 0 15
5 -16 160 25 0 ?155 176 164 177 0 0 1 17 168 0 135 91 178 59 123 113 0 0 -15 135
 262 0 91 18 0 17 91 0 135 31 168 74 44 114 0 0 -17 178 0 135 168 116 41 101 99
 0 0 -17 116 0 135 178 107 71 179 109 0 0 +17 101 0 154 180 47 71 178 99 0 116 +
15 154 310 0 180 141 0 17 180 0 154 47 101 34 43 181 0 156 -17 47 0 154 101 180
 41 46 165 0 123 +17 46 0 140 163 169 34 47 165 0 180 -16 165 350 0 ?47 32 182 1
83 0 0 1 16 182 131 0 ?63 165 173 184 0 0 1 31 183 359 0 165 184 22 0 +.06349999
9999638 458118590346178e-32 0 0 0 -1 -1 0 0 .0381 31 184 145 0 182 185 183 0 +-.
0106541824341614 -847184012896413e-34 0 -1 -795165671445626e-32 0 79516567144562
6e-32 -1 0 .0150199999998294 30 22 397 0 32 183 8 0 +.025399999999638 -310869111
1398805e-32 .00896149231744129 1541976423098495e-30 3491481338843135e-30 -1 31 1
85 144 0 173 175 184 0 +-.000654182433727519 -520183414162876e-35 0 -1 -79516567
1445626e-32 0 795165671445626e-32 -1 0 .0150199999996203 16 173 128 0 ?66 182 16
7 185 0 0 1 31 175 143 0 167 186 185 0 +.02539999999963805 2019720805443105e-34
 0 -1 -795165671445626e-32 0 795165671445626e-32 -1 0 .004499999999976655 30 186
 35 0 174 187 175 0 +-.0106541824341614 -525267681101178e-31 .0150199999998294 1
07542582699426e-30 3491481338843135e-30 -1 16 174 33 0 ?162 167 176 186 0 0 1 30
 187 31 0 176 177 186 0 +-.00065418243416139 -524472515429732e-31 .0150199999998
294 -1 -795165671445628e-32 795165671445626e-32 16 176 29 0 ?158 174 160 187 0 0
 1 134 255 177 27 0 160 188 187 189 +190 191 30 188 7 0 164 192 177 0 +0 0 0 1 7
95165671445585e-32 114513023200279e-30 141 189 128 189 189 177 136 255 190 4 25
 3 22 6 FFF1 193 194 195 135 255 191 2 0 45 255 75 193 .0254000000001663 -155096
9394425065e-32 .00450000000000144 .02535988923693495 -155018746281418e-31 .00449
7669108801185 .02527938122362615 -154888565447478e-31 .00449375722895618 .025124
7014310143 -154707485234494e-31 .00448821861080727 .0249185956291807 -1546255345
1134e-30 .00448540205418157 .02466928476756605 -1547644670049815e-32 .0044888134
4717539 .02435427723537565 -155306657341066e-31 .00450362498326314 .023954091395
24925 -156541206348601e-31 .00453807247092198 .02346449268297415 -15893900251262
3e-31 .0046056330484024 .0228970359564531 -1626384923539405e-32 .004710298297211
43 .02221559101224145 -168301260778236e-31 .00487093447759818 .0213941677703144
 -1764893087158865e-32 .00510357874497299 .0202387943291148 -1899405896744425e-3
2 .00548620744414766 .0187555681400774 -2095409931747075e-32 .00604420734604229
 .0169507618636853 -2357912340767385e-32 .00679193377986655 .01494411942345484 -
2666008801423585e-32 .00766978709691856 .01281083528214324 -3005607905012195e-32
 .00863757914985836 .01079088598686684 -333298696233165e-31 .00957062971311794 .
0086069164760832 -369269217933762e-31 .01059589253048164 .00670161347793502 -400
84760256386e-30 .0114959941901035 .00434709546986782 -440249111581371e-31 .01261
913597499482 .00274095302003808 -467170789776228e-31 .01338654558314066 .0006105
98488645965 -503108207680448e-31 .0144109823752598 -.0002198362293069195 -517130
459907656e-31 .01481070437159226 -.000654182433727519 -524472515422398e-31 .0150
199999996203 127 255 22 194 5 1 1 1 1 1 1 1 1 1 1 1 1 1 1 1 1 1 1 1 1 5 128 255
 22 195 .0837711383466936 .0894580438699278 .0951449494118813 .100831857128774 .
1065187648456664 .119305951784671 .1329545952177112 .1482828844327762 .165343636
956093 .187893612878861 .2159590453350835 .250080574399926 .309279050231924 .377
5220949189055 .445765136876236 .514008176525914 .582251215893804 .65049425450425
7 .718737291663222 .786980329098938 .855223366682504 .923466404408107 68 255 128
 139 0 147 118 21 0 +177 0 0 0 -1 -795165671445626e-32 0 ????0 -3491481338843135
e-30 1 .00448652459106055 14 147 127 196 ?126 197 170 6 128 -0 0 126 197 30 51 2
1 140 0 197 128 7 0 -0 0 0 -1 -795165671445626e-32 0 .01501999999972485 79516567
1445626e-32 -1 0 14 197 130 198 ?147 20 199 6 21 -0 0 147 20 30 81 1 198 610 143
 197 200 0 196 201 202 14 20 133 201 ?197 141 203 6 7 -0 0 197 141 30 15 199 129
 0 66 197 0 17 66 0 199 204 161 64 58 173 0 171 +17 204 0 199 55 66 61 205 206 0
 207 +17 161 0 199 66 55 56 158 176 0 0 -17 171 0 170 58 166 64 172 208 0 205 +1
7 172 0 140 169 205 67 171 208 0 0 -16 208 78 0 ?171 206 124 125 0 0 1 17 205 0
 140 172 207 64 204 206 0 0 -15 140 351 0 46 137 0 17 207 0 140 205 163 61 52 20
9 0 0 -16 206 80 0 ?204 209 208 210 0 0 1 16 209 82 0 ?52 181 206 192 0 0 1 30 2
10 100 0 206 125 192 0 +-.00065418243416139 .0150199999998294 0 -1 0 0 134 125 1
01 0 208 117 210 0 +211 212 30 192 99 0 209 210 188 0 +-.0106541824341614 .01501
99999998294 0 1154942394138824e-31 -1 0 136 211 4 25 3 22 6 FFF1 213 214 215 135
 212 2 0 45 75 213 .0254000000001663 .00450000000000144 0 .02535988923693495 .00
4497669108801185 0 .02527938122362615 .00449375722895618 0 .0251247014310143 .00
448821861080727 0 .0249185956291807 .00448540205418157 0 .02466928476756605 .004
48881344717539 0 .02435427723537565 .00450362498326314 0 .02395409139524925 .004
53807247092198 0 .02346449268297415 .0046056330484024 0 .0228970359564531 .00471
029829721143 0 .02221559101224145 .00487093447759818 0 .0213941677703144 .005103
57874497299 0 .0202387943291148 .00548620744414766 0 .0187555681400774 .00604420
734604229 0 .0169507618636853 .00679193377986655 0 .01494411942345484 .007669787
09691856 0 .01281083528214324 .00863757914985836 0 .01079088598686684 .009570629
71311794 0 .0086069164760832 .01059589253048164 0 .00670161347793502 .0114959941
901035 0 .00434709546986782 .01261913597499482 0 .00274095302003808 .01338654558
314066 0 .000610598488645964 .0144109823752598 0 -.0002198362293069195 .01481070
437159226 0 -.000654182433727519 .0150199999996203 0 127 22 214 5 1 1 1 1 1 1 1
 1 1 1 1 1 1 1 1 1 1 1 1 1 5 128 22 215 .0837711383466936 .0894580438699278 .095
1449494118813 .100831857128774 .1065187648456664 .119305951784671 .1329545952177
112 .1482828844327762 .165343636956093 .187893612878861 .2159590453350835 .25008
0574399926 .309279050231924 .3775220949189055 .445765136876236 .514008176525914
 .582251215893804 .650494254504257 .718737291663222 .786980329098938 .8552233666
82504 .923466404408107 17 52 0 203 216 63 48 207 209 0 162 +16 181 348 0 ?43 164
 209 188 164 164 1 17 43 0 42 179 40 71 180 181 0 101 +16 164 5 0 ?156 160 181 1
88 181 181 1 17 179 0 42 217 43 73 116 109 0 107 -17 217 0 42 97 179 70 78 108 0
 218 -17 107 0 135 116 76 73 218 102 0 0 +17 76 0 135 107 31 70 97 111 0 217 -17
 218 0 219 78 78 70 107 102 0 0 -15 219 277 0 218 136 0 17 78 0 219 218 218 73 2
17 108 0 179 +14 136 275 220 ?87 137 219 6 130 -0 0 87 137 30 81 1 220 612 143 1
36 221 0 201 222 223 14 87 491 222 ?94 136 35 6 24 -0 0 94 136 30 81 1 222 613 1
43 87 224 0 220 225 226 14 94 495 225 ?0 87 93 6 227 -0 0 0 87 30 51 24 504 0 87
 227 130 228 -.121600999999638 -236807497197478e-33 .978458755999982 -1 0 0 .001
502 0 0 1 50 227 506 0 94 0 24 0 +0 -236807497197478e-33 .978458755999982 1 0 0
 0 0 -1 141 228 8 228 228 24 81 1 225 614 143 94 229 0 222 0 230 80 255 1 143 23
1 232 9000 1 1 1 1 1 1 1 1 0 FFFFTFTFFFFFFF1 81 1 229 569 233 94 0 225 224 0 234
 82 255 1 230 -1894186741 80 1 233 0 235 8001 0 0 0 0 3 5 0 0 0 FFFFTFTFFFFFFF2
 81 1 224 568 233 87 0 222 221 229 236 83 255 3 234 .792156862745098 .8196078431
37255 .933333333333333 81 1 221 567 233 136 0 220 237 224 238 83 3 236 .79215686
2745098 .819607843137255 .933333333333333 81 1 237 566 233 137 0 139 144 221 239
 83 3 238 .792156862745098 .819607843137255 .933333333333333 81 1 139 604 143 13
7 237 0 133 142 240 81 1 144 565 233 98 0 142 241 237 242 83 3 239 .792156862745
098 .819607843137255 .933333333333333 81 1 241 564 233 126 0 145 243 144 244 83
 3 242 .792156862745098 .819607843137255 .933333333333333 81 1 145 606 143 126 2
41 0 142 149 245 81 1 243 563 233 147 0 196 200 241 246 83 3 244 .79215686274509
8 .819607843137255 .933333333333333 81 1 196 609 143 147 243 0 152 198 247 81 1
 200 562 233 197 0 198 248 243 249 83 3 246 .792156862745098 .819607843137255 .9
33333333333333 81 1 248 561 233 20 0 201 250 200 251 83 3 249 .792156862745098 .
819607843137255 .933333333333333 81 1 201 611 143 20 248 0 198 220 252 81 1 250
 560 233 141 0 152 151 248 253 83 3 251 .792156862745098 .819607843137255 .93333
3333333333 81 1 152 608 143 141 250 0 149 196 254 81 1 151 559 233 134 0 149 255
 250 256 83 3 253 .792156862745098 .819607843137255 .933333333333333 81 1 255 55
8 233 18 0 133 0 151 257 83 3 256 .792156862745098 .819607843137255 .93333333333
3333 81 1 133 603 143 18 255 0 0 139 258 83 3 257 .792156862745098 .819607843137
255 .933333333333333 82 1 258 -1870790389 82 1 254 1714290941 82 1 252 232784076
 82 1 247 232128753 82 1 245 231801073 82 1 240 230490365 79 255 15 235 SDL/TYSA
_COLOUR79 14 232 SWEntUnchanged82 1 226 -1893924597 82 1 223 -1040383759 17 31 0
 135 76 91 12 36 11 0 97 +17 97 0 42 38 217 12 76 111 0 0 +15 203 132 0 63 20 0
 17 216 0 203 63 52 53 162 174 0 0 -17 63 0 203 52 216 61 55 182 0 204 +17 162 0
 150 156 158 48 216 174 0 163 +17 158 0 150 162 155 53 161 176 0 216 +17 163 0 1
40 207 46 48 156 164 0 0 -17 55 0 199 161 204 53 63 182 0 158 -16 124 204 0 ?69
 208 113 117 0 0 1 17 169 0 140 46 172 41 69 124 0 178 -82 1 202 232456396 17 44
 0 42 40 84 59 91 114 0 45 +16 114 434 0 ?44 111 109 110 111 111 1 82 1 153 1734
869248 82 1 146 39059723 141 129 115 129 129 118 19 19 61 0 1 0 10 6 S0 40 11 25
 0 1 11 847582182734029e-19 .3376027405964755 ??.025399999999638 110139118694645
e-47 .976956755999982 .02540324109554335 .000496951711219281 .977041348861325 .0
2541154513628455 .000937873190940769 .977285556154383 .0254212827254764 .0012732
99161417328 .977662067073528 .02542818609384655 .001465259677594564 .97812857714
3579 .02542922318569205 .001491962728326066 .978632108869257 .02542394799897585
 .001350653191190012 .979115825217895 .0254146716177884 .001057242662154724 .979
525640226747 .0254054510095023 .000644466630749274 .979815467746025 .02540033159
474565 .000158957344103677 .979952321051379 .025399999999638 -56660755944602e-31
 .979960755999982 41 1 26 L?.025399999999638 110139118694645e-47 .97695675599998
2 41 1 27 L?.025399999999638 -56660755944602e-31 .979960755999982 204 44 28 4 0
 .023043244000018 3.141592653589795 .096201 ??2.80437790403257 .0961977589040947
 ??2.46720870958898 .0961894548633535 ??2.12989075041051 .0961797172741616 ??1.7
92432570287585 .0961728139057915 .03916914165033695 .0213678911307431 1.45512385
4106804 .096171776813946 ??1.11802103254682 .0961770520006621 ??.780859122699917
 .0961863283818496 ??.4434655067381635 .0961955489901357 ??.1060290095069258 .09
62006684048924 0 .020039244000018 6.28318530717958 .096201 51 17 427 0 1 0 4 0 +
.063499999999638 110139118694645e-47 1 0 0 -1 .0481 -1 0 0 74 4 CI16 index_map_o
ffset0 0 1 dCCZ20 16 8 0 0 225 259 260 261 262 14 229 2 0 0 0 0 0 0 0 0 0 0 0 0
 81 2 259 539 263 1 0 260 0 0 0 264 81 2 260 544 265 1 259 261 0 0 0 266 81 1 26
1 549 267 1 260 262 0 0 268 81 2 262 552 269 1 261 14 0 0 0 0 81 2 14 557 270 1
 262 2 0 0 0 271 80 2 270 272 273 9000 0 0 0 0 3 5 0 0 0 FFTFFFFFFFFFFF9 1 82 1
 271 1 79 24 273 BODY_IN_LIGHTWEIGHT_PERM80 2 269 274 275 9000 0 0 0 0 3 5 0 0 0
 FFTFFFFFFFFFFF9 1 79 16 275 BODY_RECIPE_200180 1 267 276 277 9000 1 1 1 1 1 1 1
 1 0 FFTFFFFFFFFFFF1 82 1 268 519 79 10 277 BODY_MATCH80 2 265 278 279 9000 0 0
 0 0 3 5 0 0 0 FFTFFFFFFFFFFF9 1 82 1 266 157 79 30 279 LAST_BODY_MODIFYING_FEAT
URE_ID80 2 263 280 281 9000 0 0 0 0 3 5 0 0 0 FFTFFFFFFFFFFF9 1 82 1 264 156 79
 19 281 ENT_TIME_STAMP_200180 2 13 282 283 9000 0 0 0 0 3 5 0 0 0 FFTFFFFFFFFFFF
9 1 82 1 15 112 79 12 283 ATOM_ID_20011 0 
