**ABCDEFGHIJKLMNOPQRSTUVWXYZabcdefghijklmnopqrstuvwxyz**************************
**PARASOLID !"#$%&'()*+,-./:;<=>?@[\]^_`{|}~0123456789**************************
**PART1;
MC=AMD64;
MC_MODEL=Intel64 Family 6 Model 85 Stepping 0, GenuineIntel;
MC_ID=unknown;
OS=Windows_NT;
OS_RELEASE=unknown;
FRU=Parasolid Version 31.1, build 290,  3- 9-2020;
APPL=SOLIDWORKS 2020-2020196;
SITE=;
USER=unknown;
FORMAT=text;
GUISE=transmit;
KEY=Tube-Fluid-Volume-removed-edge;
FILE=Tube-Fluid-Volume-removed-edge.x_t;
DATE=Tue May 25 17:58:14 2021;
**PART2;
SCH=SCH_3101290_31100;
USFLD_SIZE=0;
**PART3;
**END_OF_HEADER*****************************************************************
T51 : TRANSMIT FILE created by modeller version 310129023 SCH_3101290_31100_1300
6222 0 12 34 CCCCCCI4 mesh1006 0 I8 polyline1008 0 CCCCCCCDI5 owner1040 0 CCCCCC
I13 boundary_mesh1006 0 I17 boundary_polyline1008 0 CCCA16 index_map_offset0 0 1
 dA9 index_map82 0 A17 node_id_index_map82 0 A20 schema_embedding_map82 0 A5 chi
ld12 0 A14 lowest_node_id0 0 1 dA16 mesh_offset_data206 0 Z1 512 2 3 0 0 0 0 0 0
 1e3 1e-8 0 4 0 1 0 1 1 5 6 7 8 0 0 9 10 11 0 0 0 0 0 0 0 81 255 2 2 503 12 1 13
 0 0 0 0 14 70 11 CI9 list_type0 0 1 uI10 notransmit0 0 1 lCCCDCCDI12 finger_ind
ex0 0 1 dI12 finger_block1012 0 CZ3 0 4 T1 0 0 8 20 1 15 15 13 255 5 62 0 1 0 16
 0 0 17 0 50 255 6 141 0 16 18 0 0 +-.0106541824341614 -525267681101178e-31 .015
0199999998294 1 795165671445626e-32 0 -795165671445626e-32 1 0 38 12 CCCCCCCCCCC
A17 intersection_data204 0 Z7 343 0 10 19 0 0 +20 21 22 23 24 25 29 255 8 340 0
 11 26 0 .0251333186486835 0 .967503760296632 19 8 CCCCCCCA5 owner12 0 Z9 66 0 1
 17 0 27 V0 16 255 10 341 0 ?28 0 29 7 0 0 1 18 255 11 338 0 30 0 31 8 ?1 17 255
 30 0 32 33 34 11 35 36 0 28 -18 31 208 0 33 11 37 26 ?1 17 33 0 32 38 30 31 39
 40 0 41 +18 37 58 0 42 31 43 44 ?1 29 26 210 0 31 44 8 .02513331865029025 -1547
47341566966e-31 .004489379766781845 29 44 60 0 37 45 26 -.0106541824341614 -8471
8401289637e-33 -122004264026313e-32 29 45 57 0 43 46 44 -.0106541824341614 -5252
67681101178e-31 .0150199999998294 18 43 55 0 47 37 48 45 ?1 29 46 54 0 48 49 45
 -.000654182433727519 -524472515422398e-31 .0150199999996203 18 48 52 0 38 43 50
 46 ?1 29 49 108 0 50 51 46 -.0106541824341614 .0150199999998294 0 18 50 90 0 52
 48 53 49 ?1 29 51 109 0 53 54 49 -.000654182433727519 .0150199999996203 0 18 53
 89 0 55 50 56 51 ?1 29 54 110 0 56 57 51 .02539999999963805 .004499999999976655
 0 18 56 88 0 58 53 59 54 ?1 29 57 308 0 60 61 54 .1013333186486834 139977129142
5424e-32 0 18 60 249 0 62 63 64 57 ?1 29 61 309 0 59 65 57 .0251333186486835 0 1
 18 59 251 0 66 56 63 61 ?1 29 65 310 0 63 67 61 .1013333186486834 1399771291425
424e-32 1 18 63 255 0 68 59 60 65 ?1 29 67 421 0 64 69 65 .02513331864868345 100
986040272156e-33 .970507760296632 18 64 380 0 70 60 71 67 ?1 29 69 423 0 71 72 6
7 0 100986040272156e-33 .970507760296632 18 71 385 0 73 64 74 69 ?1 29 72 424 0
 74 0 69 0 1009860402721562e-34 .967503760296632 18 74 384 0 35 71 0 72 ?1 17 35
 0 75 76 28 74 30 36 0 77 +15 255 75 397 0 70 78 0 17 76 0 75 70 35 71 77 79 0 8
0 -17 28 0 75 35 70 11 81 10 0 39 +16 36 371 0 ?35 82 83 84 0 0 1 17 77 0 85 80
 80 74 76 79 0 34 +15 85 407 0 77 86 0 17 80 0 85 77 77 71 34 83 0 0 +16 79 374
 0 ?77 83 0 87 0 0 1 17 34 0 32 30 73 74 80 83 0 0 -15 32 446 0 30 88 0 17 73 0
 32 34 89 71 70 82 0 76 +16 83 377 0 ?80 36 79 90 0 0 1 30 255 90 417 0 83 87 91
 0 +0 1009860402721562e-34 .967503760296632 0 -641121819037028e-46 1 31 255 87 4
18 0 79 0 90 0 +0 -3850422443790755e-34 .969005760296632 -1 0 0 0 0 1 .001502 30
 91 416 0 82 90 84 0 +.05 100986040272156e-33 .970507760296632 -1 0 0 16 82 373
 0 ?73 92 36 91 0 0 1 30 84 415 0 36 91 93 0 +.05 1009860402721562e-34 .96750376
0296632 -1 0 0 31 93 300 0 94 84 95 0 +.0632333186486835 0 1 0 0 -1 -1 0 0 .0381
 16 94 224 0 ?96 97 92 93 0 0 1 30 95 299 0 97 93 98 0 +.0251333186486835 0 1 1
 183697019872103e-30 0 16 97 240 0 ?68 99 94 95 0 0 1 31 98 298 0 92 95 100 0 +.
0632333186486835 0 0 0 0 -1 -1 0 0 .0381 16 92 221 0 ?101 94 82 98 0 0 1 30 100
 296 0 102 98 103 0 +.0251333186486835 0 1 0 0 -1 16 102 228 0 ?89 104 40 100 40
 40 1 30 103 295 0 99 100 105 0 +.1013333186486834 1399771291425424e-32 1 0 0 -1
 16 99 227 0 ?106 40 97 103 0 0 1 38 105 291 0 104 103 107 0 +108 20 109 110 111
 112 16 104 235 0 ?58 113 102 105 0 0 1 134 255 107 101 0 113 105 114 0 +115 116
 68 255 108 139 0 117 118 18 119 +120 0 0 0 -1 -795165671445626e-32 0 ????0 -349
1481338843135e-30 1 .00448652459106055 51 255 20 285 0 121 122 123 124 +.0632333
186486835 0 1 0 0 -1 .0381 -1 0 0 40 255 6 109 0 1 6 .00025711489628083 .3402494
954983135 ??.02513331864868345 -1547473415656705e-32 .00448937976674108 .0251622
689111735 .001484982115731544 .004237491908361025 .0252365264445319 .00280246002
549988 .00351127839194184 .02532435055782085 .00381052992193437 .002386352722416
635 .02538704182779475 .00438968458965575 .000986928189196661 .0253999999996373
 .004499999999970705 99154740900536e-33 41 3 CI8 term_use0 0 1 cCZ1 110 L?.02513
331864868345 -1547473415656705e-32 .00448937976674108 41 1 111 L?.02539999999963
73 .004499999999970705 99154740900536e-33 204 2 17 INTERSECTION_DATA17 Intersect
ion data7 uv_type0 0 1 u6 values0 1 1 fT24 112 4 .0920586054484012 0 0 .99551062
0233259 .0912490736324962 .3370657917597005 .0389857834911983 .995762508091639 .
089119938070845 .673600249693318 .0736218705211063 .996488721608058 .08638354661
34738 1.01129706434017 .1001813999530904 .997613647277583 .0842298452643724 1.34
964469564428 .1154712557371712 .999013071810803 .083771138365444 1.5707963267949
 .1183865813674924 1 14 255 121 261 125 ?126 127 128 5 20 +0 0 126 127 27 50 122
 288 0 126 21 20 0 +.0632333186486835 0 1 0 0 -1 -1 0 0 50 123 98 0 127 20 118 0
 +.01211316517484838 .00896149231744127 0 0 0 -1 -1 0 0 141 255 124 105 129 129
 20 141 129 7 124 124 20 14 127 94 130 ?121 88 131 5 123 +0 0 121 88 27 50 118 3
 0 88 123 108 0 +.01211316517484838 -311925634633364e-31 .00896149231744127 -795
165671445626e-32 1 3491481338843135e-30 -1 -795165671445628e-32 795165671445626e
-32 14 88 1 132 ?127 117 32 5 118 -0 0 127 117 27 81 1 132 506 133 88 134 0 130
 135 136 14 117 127 135 ?88 137 138 5 108 -0 0 88 137 27 13 27 65 0 0 0 0 0 0 9
 16 14 16 133 139 ?137 0 140 5 6 -0 0 137 0 27 81 1 139 508 133 16 141 0 135 142
 143 14 137 130 142 ?117 16 144 5 18 -0 0 117 16 27 15 140 132 0 52 16 0 17 52 0
 140 42 145 50 47 29 0 146 +17 42 0 140 145 52 37 147 148 0 149 +17 145 0 140 52
 42 43 149 150 0 0 -17 47 0 144 151 146 43 52 29 0 152 -16 29 131 0 ?52 10 153 1
9 0 0 1 17 146 0 144 47 55 50 154 155 0 147 +15 144 129 0 55 137 0 17 55 0 144 1
46 151 53 156 153 0 157 +17 154 0 131 158 147 53 146 155 0 0 -16 155 80 0 ?146 1
48 113 114 0 0 1 17 147 0 131 154 159 50 42 148 0 0 -15 131 314 0 158 127 0 17 1
59 0 131 147 101 37 62 160 0 0 -16 148 82 0 ?42 160 155 161 0 0 1 16 160 5 0 ?62
 162 148 163 0 0 1 30 161 99 0 148 114 163 0 +-.0106541824341614 .01501999999982
94 0 1154942394138824e-31 -1 0 30 114 100 0 155 107 161 0 +-.00065418243416139 .
0150199999998294 0 -1 0 0 30 163 7 0 160 161 120 0 +0 0 0 1 795165671445585e-32
 114513023200279e-30 134 120 27 0 162 163 164 165 +166 167 16 162 209 0 ?38 168
 160 120 0 0 1 30 164 31 0 168 120 169 0 +-.00065418243416139 -524472515429732e-
31 .0150199999998294 -1 -795165671445628e-32 795165671445626e-32 141 165 108 165
 165 120 136 255 166 4 25 3 22 6 FFF1 170 171 172 135 255 167 2 0 45 255 75 170
 .0254000000001663 -1550969394425065e-32 .00450000000000144 .02535988923693495 -
155018746281418e-31 .004497669108801185 .02527938122362615 -154888565447478e-31
 .00449375722895618 .0251247014310143 -154707485234494e-31 .00448821861080727 .0
249185956291807 -15462553451134e-30 .00448540205418157 .02466928476756605 -15476
44670049815e-32 .00448881344717539 .02435427723537565 -155306657341066e-31 .0045
0362498326314 .02395409139524925 -156541206348601e-31 .00453807247092198 .023464
49268297415 -158939002512623e-31 .0046056330484024 .0228970359564531 -1626384923
539405e-32 .00471029829721143 .02221559101224145 -168301260778236e-31 .004870934
47759818 .0213941677703144 -1764893087158865e-32 .00510357874497299 .02023879432
91148 -1899405896744425e-32 .00548620744414766 .0187555681400774 -20954099317470
75e-32 .00604420734604229 .0169507618636853 -2357912340767385e-32 .0067919337798
6655 .01494411942345484 -2666008801423585e-32 .00766978709691856 .01281083528214
324 -3005607905012195e-32 .00863757914985836 .01079088598686684 -333298696233165
e-31 .00957062971311794 .0086069164760832 -369269217933762e-31 .0105958925304816
4 .00670161347793502 -40084760256386e-30 .0114959941901035 .00434709546986782 -4
40249111581371e-31 .01261913597499482 .00274095302003808 -467170789776228e-31 .0
1338654558314066 .000610598488645965 -503108207680448e-31 .0144109823752598 -.00
02198362293069195 -517130459907656e-31 .01481070437159226 -.000654182433727519 -
524472515422398e-31 .0150199999996203 127 255 22 171 5 1 1 1 1 1 1 1 1 1 1 1 1 1
 1 1 1 1 1 1 1 5 128 255 22 172 .0837711383466936 .0894580438699278 .09514494941
18813 .100831857128774 .1065187648456664 .119305951784671 .1329545952177112 .148
2828844327762 .165343636956093 .187893612878861 .2159590453350835 .2500805743999
26 .309279050231924 .3775220949189055 .445765136876236 .514008176525914 .5822512
15893804 .650494254504257 .718737291663222 .786980329098938 .855223366682504 .92
3466404408107 16 168 29 0 ?152 150 162 164 0 0 1 30 169 35 0 150 164 173 0 +-.01
06541824341614 -525267681101178e-31 .0150199999998294 107542582699426e-30 349148
1338843135e-30 -1 16 150 33 0 ?149 153 168 169 0 0 1 31 173 144 0 153 169 19 0 +
-.000654182433727519 -520183414162876e-35 0 -1 -795165671445626e-32 0 7951656714
45626e-32 -1 0 .0150199999996203 16 153 128 0 ?55 29 150 173 0 0 1 31 19 145 0 2
9 173 7 0 +-.0106541824341614 -847184012896413e-34 0 -1 -795165671445626e-32 0 7
95165671445626e-32 -1 0 .0150199999998294 17 149 0 32 62 152 37 145 150 0 159 +1
7 62 0 32 174 149 60 159 160 0 101 +17 152 0 32 149 38 43 151 168 0 145 +17 38 0
 32 152 33 48 41 162 0 156 +17 151 0 144 55 47 48 152 168 0 0 -17 41 0 138 58 15
6 31 38 162 0 175 -17 156 0 138 41 157 48 55 153 0 151 -15 138 126 0 41 117 0 17
 157 0 138 156 58 53 158 113 0 154 +17 58 0 138 157 41 56 175 104 0 158 +17 158
 0 131 101 154 56 157 113 0 176 -16 113 78 0 ?157 155 104 107 0 0 1 17 101 0 131
 159 158 60 176 92 0 106 +17 176 0 128 175 106 56 101 92 0 0 -15 128 342 0 81 12
1 0 17 175 0 128 39 176 31 58 104 0 0 -17 106 0 128 176 96 60 174 99 0 0 +17 96
 0 128 106 66 63 177 94 0 0 +17 174 0 32 178 62 63 106 99 0 96 -17 178 0 32 89 1
74 59 68 97 0 177 -17 89 0 32 73 178 64 66 102 0 0 +17 68 0 179 177 177 63 178 9
7 0 174 +17 177 0 179 68 68 59 96 94 0 0 -15 179 279 0 177 126 0 14 126 277 180
 ?78 121 179 5 122 -0 0 78 121 27 81 1 180 510 133 126 181 0 142 182 183 14 78 3
94 182 ?86 126 75 5 21 +0 0 86 126 27 81 1 182 511 133 78 184 0 180 185 186 14 8
6 405 185 ?0 78 85 5 187 +0 0 0 78 27 51 21 410 0 78 187 122 188 +.05 -385042244
3790755e-34 .969005760296632 -1 0 0 .001502 0 0 1 50 187 412 0 86 0 21 0 +0 -385
0422443790755e-34 .969005760296632 -1 0 0 0 0 1 141 188 7 188 188 21 81 1 185 51
2 133 86 189 0 182 0 190 80 255 1 133 191 192 9000 1 1 1 1 1 1 1 1 0 FFFFTFTFFFF
FFF1 81 1 189 480 193 86 0 185 184 0 194 82 255 1 190 -1802305175 80 1 193 0 195
 8001 0 0 0 0 3 5 0 0 0 FFFFTFTFFFFFFF2 81 1 184 479 193 78 0 182 181 189 196 83
 255 3 194 .792156862745098 .819607843137255 .933333333333333 81 1 181 478 193 1
26 0 180 197 184 198 83 3 196 .792156862745098 .819607843137255 .933333333333333
 81 1 197 477 193 121 0 125 199 181 200 83 3 198 .792156862745098 .8196078431372
55 .933333333333333 81 1 125 504 133 121 197 0 0 130 201 81 1 199 476 193 127 0
 130 134 197 202 83 3 200 .792156862745098 .819607843137255 .933333333333333 81
 1 130 505 133 127 199 0 125 132 203 81 1 134 475 193 88 0 132 204 199 205 83 3
 202 .792156862745098 .819607843137255 .933333333333333 81 1 204 474 193 117 0 1
35 206 134 207 83 3 205 .792156862745098 .819607843137255 .933333333333333 81 1
 135 507 133 117 204 0 132 139 208 81 1 206 473 193 137 0 142 141 204 209 83 3 2
07 .792156862745098 .819607843137255 .933333333333333 81 1 142 509 133 137 206 0
 139 180 210 81 1 141 472 193 16 0 139 0 206 211 83 3 209 .792156862745098 .8196
07843137255 .933333333333333 83 3 211 .792156862745098 .819607843137255 .9333333
33333333 82 1 210 232456396 82 1 208 43778407 82 1 203 40501607 82 1 201 -181521
5767 79 255 15 195 SDL/TYSA_COLOUR79 14 192 SWEntUnchanged82 1 186 -1801191063 8
2 1 183 -1825242777 17 66 0 128 96 81 59 89 102 0 178 -17 81 0 128 66 39 64 28 1
0 0 89 -17 39 0 128 81 175 11 33 40 0 0 -16 40 339 0 ?33 102 99 100 102 102 1 51
 18 140 0 137 108 6 0 -0 0 0 -1 -795165671445626e-32 0 .01501999999972485 795165
671445626e-32 -1 0 82 1 143 232784076 82 1 136 40632681 141 119 105 119 119 108
 136 115 4 25 3 22 6 FFF1 212 213 214 135 116 2 0 45 75 212 .0254000000001663 .0
0450000000000144 0 .02535988923693495 .004497669108801185 0 .02527938122362615 .
00449375722895618 0 .0251247014310143 .00448821861080727 0 .0249185956291807 .00
448540205418157 0 .02466928476756605 .00448881344717539 0 .02435427723537565 .00
450362498326314 0 .02395409139524925 .00453807247092198 0 .02346449268297415 .00
46056330484024 0 .0228970359564531 .00471029829721143 0 .02221559101224145 .0048
7093447759818 0 .0213941677703144 .00510357874497299 0 .0202387943291148 .005486
20744414766 0 .0187555681400774 .00604420734604229 0 .0169507618636853 .00679193
377986655 0 .01494411942345484 .00766978709691856 0 .01281083528214324 .00863757
914985836 0 .01079088598686684 .00957062971311794 0 .0086069164760832 .010595892
53048164 0 .00670161347793502 .0114959941901035 0 .00434709546986782 .0126191359
7499482 0 .00274095302003808 .01338654558314066 0 .000610598488645964 .014410982
3752598 0 -.0002198362293069195 .01481070437159226 0 -.000654182433727519 .01501
99999996203 0 127 22 213 5 1 1 1 1 1 1 1 1 1 1 1 1 1 1 1 1 1 1 1 1 5 128 22 214
 .0837711383466936 .0894580438699278 .0951449494118813 .100831857128774 .1065187
648456664 .119305951784671 .1329545952177112 .1482828844327762 .165343636956093
 .187893612878861 .2159590453350835 .250080574399926 .309279050231924 .377522094
9189055 .445765136876236 .514008176525914 .582251215893804 .650494254504257 .718
737291663222 .786980329098938 .855223366682504 .923466404408107 17 70 0 75 28 76
 64 73 82 0 81 -19 17 61 0 1 0 9 5 S0 40 11 22 0 1 11 847582182734028e-19 .33760
2740596476 ??.02513331864868345 100986040272156e-33 .970507760296632 .0251365597
445888 .000496951711219281 .970423167435289 .02514486378533 .000937873190940769
 .970178960142232 .02515460137452185 .001273299161417328 .969802449223086 .02516
1504742892 .001465259677594562 .969335939153035 .0251625418347375 .0014919627283
26066 .968832407427357 .0251572666480213 .00135065319119001 .96834869107872 .025
14799026683385 .001057242662154724 .967938876069867 .02513876965854775 .00064446
6630749273 .967649048550589 .0251336502437911 .0001589573441036765 .967512195245
235 .0251333186486835 -585263450092656e-32 .967503760296632 41 1 23 L?.025133318
64868345 100986040272156e-33 .970507760296632 41 1 24 L?.0251333186486835 -58526
3450092656e-32 .967503760296632 204 44 25 4 265055223811433e-32 .029492239703367
8 323587406558742e-30 .02486668135131655 ??.3372147495572225 .0248634402554112 ?
?.674383944000814 .02485513621467 ??1.011701903179286 .02484539862547815 ??1.349
16008330221 .024838495257108 .03916914165033695 .0311675925726427 1.686468799482
99 .0248374581652625 ??2.02357162104297 .0248427333519787 ??2.360733530889875 .0
2485200973316615 ??2.69812714685163 .02486123034145225 ??3.03556364408287 .02486
634975620895 0 .0324962397033678 3.141592653589795 .02486668135131655 74 4 CI16
 index_map_offset0 0 1 dCCZ20 15 8 0 0 185 215 216 217 218 13 189 2 0 0 0 0 0 0
 0 0 0 0 0 0 81 2 215 447 219 1 0 216 0 0 0 220 81 2 216 452 221 1 215 217 0 0 0
 222 81 1 217 457 223 1 216 218 0 0 224 81 2 218 460 225 1 217 13 0 0 0 0 81 2 1
3 471 226 1 218 2 0 0 0 227 80 2 226 228 229 9000 0 0 0 0 3 5 0 0 0 FFTFFFFFFFFF
FF9 1 82 1 227 1 79 24 229 BODY_IN_LIGHTWEIGHT_PERM80 2 225 230 231 9000 0 0 0 0
 3 5 0 0 0 FFTFFFFFFFFFFF9 1 79 16 231 BODY_RECIPE_200180 1 223 232 233 9000 1 1
 1 1 1 1 1 1 0 FFTFFFFFFFFFFF1 82 1 224 525 79 10 233 BODY_MATCH80 2 221 234 235
 9000 0 0 0 0 3 5 0 0 0 FFTFFFFFFFFFFF9 1 82 1 222 166 79 30 235 LAST_BODY_MODIF
YING_FEATURE_ID80 2 219 236 237 9000 0 0 0 0 3 5 0 0 0 FFTFFFFFFFFFFF9 1 82 1 22
0 210 79 19 237 ENT_TIME_STAMP_200180 2 12 238 239 9000 0 0 0 0 3 5 0 0 0 FFTFFF
FFFFFFFF9 1 82 1 14 113 79 12 239 ATOM_ID_20011 0 
